<svg width="40" height="33" viewBox="0 0 40 33" fill="none" xmlns="http://www.w3.org/2000/svg">
<path d="M0 0H40V33H0V0Z" fill="#C3FF00"/>
<path d="M5 8.77408V3.5H33.4876L20.6424 8.77408H15.1929L15 29.5H10.5V17.807V8.77408H5Z" fill="black"/>
<path d="M22.5 12L38 3.5L27.5 12L22.5 20L26 29.5H21.5L18.75 21.9031L15 29.5H10.5V17.807L12.0742 11.5131L14.5 10.901L18.75 15.5L22.5 12Z" fill="black"/>
<path d="M15.1929 19C15.1929 18.164 12.7929 17.4151 13.3012 16.8211C13.8094 16.2271 14.44 15.9301 15.1929 15.9301C15.9835 15.9301 16.6235 16.2271 17.1129 16.8211C16.5 17.401 15.1929 18.164 15.1929 19C15.1929 19.836 17.1129 20.5 17.1129 21.1111C16.6235 21.7051 15.9835 22.0021 15.1929 22.0021C14.44 22.0021 13.8094 21.7051 13.3012 21.1111C12.7929 20.5171 15.1929 19.836 15.1929 19Z" fill="#C3FF00"/>
<path d="M26.5954 27.912C26.5954 27.5067 26.7394 27.16 27.0274 26.872C27.3154 26.584 27.6728 26.44 28.0994 26.44C28.5474 26.44 28.9101 26.584 29.1874 26.872C29.4648 27.16 29.6034 27.5067 29.6034 27.912C29.6034 28.3173 29.4648 28.664 29.1874 28.952C28.9101 29.24 28.5474 29.384 28.0994 29.384C27.6728 29.384 27.3154 29.24 27.0274 28.952C26.7394 28.664 26.5954 28.3173 26.5954 27.912Z" fill="black"/>
</svg>
